0
SECTION
2
HEADER
9
$INSUNITS
70
4
9
$ACADVER
1
AC1014
9
$HANDSEED
5
FFFF
0
ENDSEC
0
SECTION
2
TABLES
0
TABLE
2
VPORT
5
8
100
AcDbSymbolTable
0
ENDTAB
0
TABLE
2
LTYPE
5
5
100
AcDbSymbolTable
0
LTYPE
5
14
100
AcDbSymbolTableRecord
100
AcDbLinetypeTableRecord
2
BYBLOCK
70
0
0
LTYPE
5
15
100
AcDbSymbolTableRecord
100
AcDbLinetypeTableRecord
2
BYLAYER
70
0
0
ENDTAB
0
TABLE
2
LAYER
5
2
100
AcDbSymbolTable
70
2
0
LAYER
5
50
100
AcDbSymbolTableRecord
100
AcDbLayerTableRecord
2
0
70
0
6
CONTINUOUS
0
ENDTAB
0
TABLE
2
STYLE
5
3
100
AcDbSymbolTable
70
1
0
STYLE
5
11
100
AcDbSymbolTableRecord
100
AcDbTextStyleTableRecord
2
STANDARD
70
0
0
ENDTAB
0
TABLE
2
VIEW
5
6
100
AcDbSymbolTable
70
0
0
ENDTAB
0
TABLE
2
UCS
5
7
100
AcDbSymbolTable
70
0
0
ENDTAB
0
TABLE
2
APPID
5
9
100
AcDbSymbolTable
70
2
0
APPID
5
12
100
AcDbSymbolTableRecord
100
AcDbRegAppTableRecord
2
ACAD
70
0
0
ENDTAB
0
TABLE
2
DIMSTYLE
5
A
100
AcDbSymbolTable
70
1
0
ENDTAB
0
TABLE
2
BLOCK_RECORD
5
1
100
AcDbSymbolTable
70
1
0
BLOCK_RECORD
5
1F
100
AcDbSymbolTableRecord
100
AcDbBlockTableRecord
2
*MODEL_SPACE
0
BLOCK_RECORD
5
1B
100
AcDbSymbolTableRecord
100
AcDbBlockTableRecord
2
*PAPER_SPACE
0
ENDTAB
0
ENDSEC
0
SECTION
2
BLOCKS
0
BLOCK
5
20
100
AcDbEntity
100
AcDbBlockBegin
2
*MODEL_SPACE
0
ENDBLK
5
21
100
AcDbEntity
100
AcDbBlockEnd
0
BLOCK
5
1C
100
AcDbEntity
100
AcDbBlockBegin
2
*PAPER_SPACE
0
ENDBLK
5
1D
100
AcDbEntity
100
AcDbBlockEnd
0
ENDSEC
0
SECTION
2
ENTITIES
0
SPLINE
5
100
100
AcDbEntity
8
0
100
AcDbSpline
70
0
71
3
72
12
73
8
74
0
42
0.000000001
43
0.0000000001
44
0.0000000001
40
0
40
0
40
0
40
0
40
0.2343866840321561
40
0.2343866840321561
40
0.39895837653965327
40
0.39895837653965327
40
0.56353006904715075
40
0.56353006904715075
40
0.56353006904715075
40
0.56353006904715075
10
59.424436331859518
20
57.482707062530778
30
0
10
59.887036133705081
20
58.112321104371844
30
0
10
60.468190852214661
20
58.645559664816304
30
0
10
61.603513499186214
20
59.338072079994006
30
0
10
62.108810088670225
20
59.558163567547084
30
0
10
63.165068969926452
20
59.854884793207937
30
0
10
63.711058821335385
20
59.930117687582339
30
0
10
64.259631129693716
20
59.930117687582339
30
0
0
SPLINE
5
101
100
AcDbEntity
8
0
100
AcDbSpline
70
4
71
5
72
29
73
23
74
0
42
0.000000001
43
0.0000000001
44
0.0000000001
40
0.10139588484546816
40
0.10139588484546816
40
0.10139588484546816
40
0.10139588484546816
40
0.10139588484546816
40
0.10139588484546816
40
0.15000000000000002
40
0.20000000000000001
40
0.25
40
0.29999999999999999
40
0.34999999999999998
40
0.39999999999999997
40
0.44999999999999996
40
0.49999999999999994
40
0.54999999999999993
40
0.59999999999999998
40
0.65000000000000002
40
0.70000000000000007
40
0.75000000000000011
40
0.80000000000000016
40
0.8500000000000002
40
0.90000000000000024
40
0.95000000000000029
40
1
40
1
40
1
40
1
40
1
40
1
41
1
41
1
41
1
41
1
41
1
41
1
41
1
41
1
41
1
41
1
41
1
41
1
41
1
41
1
41
1
41
1
41
1
41
1
41
1
41
1
41
1
41
1
41
1
10
59.424436331859482
20
57.4827070625308
30
0
10
59.143994957521912
20
57.10101682727408
30
-2.7755575615628914e-16
10
58.561293921765497
20
56.275223991109144
30
0
10
57.62733038508717
20
54.908000554134794
30
0
10
56.210684859776279
20
52.986617192602267
30
0
10
54.074422305867238
20
50.768103366699869
30
0
10
51.617258768865412
20
48.905766812332949
30
0
10
49.092201511356627
20
47.351385659659222
30
2.7755575615628914e-16
10
46.836236286425844
20
45.930313130345709
30
0
10
45.217427156773844
20
44.450169608742485
30
0
10
44.565429874811358
20
42.797975372963677
30
2.7755575615628914e-16
10
45.095579234962599
20
41.061657256313126
30
0
10
46.853967293267345
20
39.564231529447653
30
-2.7755575615628914e-16
10
49.675715008139179
20
38.591920875662098
30
2.7755575615628914e-16
10
53.187370562512292
20
38.235733626107887
30
2.7755575615628914e-16
10
56.680912085177077
20
38.066749645684794
30
0
10
59.276895693304184
20
37.138368531956246
30
2.7755575615628914e-16
10
60.843199426297105
20
35.172913732196278
30
0
10
61.528361892057234
20
32.098770844895441
30
0
10
61.661186844048814
20
28.864807075670598
30
0
10
61.683898389189984
20
26.079923252355897
30
0
10
61.688979436184908
20
24.07741729342138
30
0
10
61.688979436184923
20
23.039654607863071
30
0
0
LINE
5
102
100
AcDbEntity
8
0
100
AcDbLine
10
61.688979436184923
20
23.039654607863071
30
0
11
61.688979436185171
21
-0.069882312418729775
31
7.3955709864469857e-31
0
LINE
5
103
100
AcDbEntity
8
0
100
AcDbLine
10
61.688979436185171
20
-0.069882312418729775
30
7.3955709864469857e-31
11
69.917689700635819
21
-0.069882312418723988
31
6.3275570481437017e-31
0
LINE
5
104
100
AcDbEntity
8
0
100
AcDbLine
10
69.917689700635819
20
-0.069882312418723988
30
6.3275570481437017e-31
11
69.917689700635179
21
59.930117687582339
31
1.9721522630525295e-30
0
LINE
5
105
100
AcDbEntity
8
0
100
AcDbLine
10
69.917689700635179
20
59.930117687582339
30
1.9721522630525295e-30
11
64.259631129693716
21
59.930117687582339
31
0
0
ENDSEC
0
SECTION
2
OBJECTS
0
DICTIONARY
5
C
100
AcDbDictionary
3
ACAD_GROUP
350
D
3
ACAD_MLINESTYLE
350
17
0
DICTIONARY
5
D
100
AcDbDictionary
0
DICTIONARY
5
1A
330
C
100
AcDbDictionary
0
DICTIONARY
5
17
100
AcDbDictionary
0
ENDSEC
0
EOF
