0
SECTION
2
HEADER
9
$INSUNITS
70
4
9
$ACADVER
1
AC1014
9
$HANDSEED
5
FFFF
0
ENDSEC
0
SECTION
2
TABLES
0
TABLE
2
VPORT
5
8
100
AcDbSymbolTable
0
ENDTAB
0
TABLE
2
LTYPE
5
5
100
AcDbSymbolTable
0
LTYPE
5
14
100
AcDbSymbolTableRecord
100
AcDbLinetypeTableRecord
2
BYBLOCK
70
0
0
LTYPE
5
15
100
AcDbSymbolTableRecord
100
AcDbLinetypeTableRecord
2
BYLAYER
70
0
0
ENDTAB
0
TABLE
2
LAYER
5
2
100
AcDbSymbolTable
70
2
0
LAYER
5
50
100
AcDbSymbolTableRecord
100
AcDbLayerTableRecord
2
0
70
0
6
CONTINUOUS
0
ENDTAB
0
TABLE
2
STYLE
5
3
100
AcDbSymbolTable
70
1
0
STYLE
5
11
100
AcDbSymbolTableRecord
100
AcDbTextStyleTableRecord
2
STANDARD
70
0
0
ENDTAB
0
TABLE
2
VIEW
5
6
100
AcDbSymbolTable
70
0
0
ENDTAB
0
TABLE
2
UCS
5
7
100
AcDbSymbolTable
70
0
0
ENDTAB
0
TABLE
2
APPID
5
9
100
AcDbSymbolTable
70
2
0
APPID
5
12
100
AcDbSymbolTableRecord
100
AcDbRegAppTableRecord
2
ACAD
70
0
0
ENDTAB
0
TABLE
2
DIMSTYLE
5
A
100
AcDbSymbolTable
70
1
0
ENDTAB
0
TABLE
2
BLOCK_RECORD
5
1
100
AcDbSymbolTable
70
1
0
BLOCK_RECORD
5
1F
100
AcDbSymbolTableRecord
100
AcDbBlockTableRecord
2
*MODEL_SPACE
0
BLOCK_RECORD
5
1B
100
AcDbSymbolTableRecord
100
AcDbBlockTableRecord
2
*PAPER_SPACE
0
ENDTAB
0
ENDSEC
0
SECTION
2
BLOCKS
0
BLOCK
5
20
100
AcDbEntity
100
AcDbBlockBegin
2
*MODEL_SPACE
0
ENDBLK
5
21
100
AcDbEntity
100
AcDbBlockEnd
0
BLOCK
5
1C
100
AcDbEntity
100
AcDbBlockBegin
2
*PAPER_SPACE
0
ENDBLK
5
1D
100
AcDbEntity
100
AcDbBlockEnd
0
ENDSEC
0
SECTION
2
ENTITIES
0
SPLINE
5
100
100
AcDbEntity
8
0
100
AcDbSpline
70
4
71
5
72
31
73
25
74
0
42
0.000000001
43
0.0000000001
44
0.0000000001
40
0
40
0
40
0
40
0
40
0
40
0
40
0.025000000000000001
40
0.050000000000000003
40
0.075000000000000011
40
0.10000000000000001
40
0.125
40
0.14999999999999999
40
0.17499999999999999
40
0.19999999999999998
40
0.22499999999999998
40
0.24999999999999997
40
0.27499999999999997
40
0.29999999999999999
40
0.32500000000000001
40
0.35000000000000003
40
0.37500000000000006
40
0.40000000000000008
40
0.4250000000000001
40
0.45000000000000012
40
0.47500000000000014
40
0.48419121031938051
40
0.48419121031938051
40
0.48419121031938051
40
0.48419121031938051
40
0.48419121031938051
40
0.48419121031938051
41
1
41
1
41
1
41
1
41
1
41
1
41
1
41
1
41
1
41
1
41
1
41
1
41
1
41
1
41
1
41
1
41
1
41
1
41
1
41
1
41
1
41
1
41
1
41
1
41
1
10
-27.682999999627107
20
46.550815366791589
30
0
10
-28.523612915262593
20
46.701816670311516
30
0
10
-29.975305232885102
20
46.760013089151904
30
0
10
-31.264646402520363
20
46.042732668502012
30
0
10
-30.632311077098556
20
43.289815538627145
30
0
10
-27.264413080235812
20
37.541683408041649
30
0
10
-23.349388591836785
20
30.525968619389154
30
0
10
-20.996965998555062
20
23.392361907237369
30
0
10
-20.949723459483959
20
16.852175971818209
30
0
10
-22.753171088984473
20
11.178821308915218
30
0
10
-25.305826388857824
20
6.3318426045730423
30
0
10
-27.310626433618971
20
2.0439064905226139
30
0
10
-27.725627334079327
20
-2.079407546866574
30
0
10
-26.311611310044164
20
-6.4629803676499629
30
0
10
-23.8145744711783
20
-11.474224050004072
30
0
10
-21.406195149143606
20
-17.352004829160329
30
0
10
-20.309129950063905
20
-24.138115136088917
30
0
10
-21.303957961466384
20
-31.592252521222012
30
0
10
-24.389009054984619
20
-39.146701751793962
30
0
10
-28.115047735299804
20
-45.758824871899371
30
0
10
-29.839574762399394
20
-49.589918159680664
30
0
10
-29.129719422371714
20
-50.735636982423422
30
0
10
-27.624095029610167
20
-50.614591979417661
30
0
10
-26.510915898650744
20
-50.268027619026334
30
0
10
-26.196081156524357
20
-50.15561347580465
30
0
0
SPLINE
5
101
100
AcDbEntity
8
0
100
AcDbSpline
70
4
71
5
72
17
73
11
74
0
42
0.000000001
43
0.0000000001
44
0.0000000001
40
-0.98060156833493006
40
-0.98060156833493006
40
-0.98060156833493006
40
-0.98060156833493006
40
-0.98060156833493006
40
-0.98060156833493006
40
-0.97500000000000053
40
-0.95000000000000051
40
-0.92500000000000049
40
-0.90000000000000047
40
-0.87500000000000044
40
-0.85662776578056865
40
-0.85662776578056865
40
-0.85662776578056865
40
-0.85662776578056865
40
-0.85662776578056865
40
-0.85662776578056865
41
1
41
1
41
1
41
1
41
1
41
1
41
1
41
1
41
1
41
1
41
1
10
-26.196081156523398
20
-50.155613475804145
30
0
10
-25.881610535084377
20
-50.001984563348863
30
0
10
-24.173415232771312
20
-49.137713594807735
30
0
10
-21.173126263809291
20
-47.323075721598599
30
0
10
-17.19006181028524
20
-44.106824854115416
30
0
10
-12.999057600681521
20
-39.040794679301513
30
0
10
-10.231376789633222
20
-32.744689087868991
30
0
10
-9.6370743604132407
20
-27.719879027502955
30
0
10
-9.9868004900863827
20
-24.154954397704586
30
0
10
-10.460176810345052
20
-21.956723324818515
30
0
10
-10.699941831812625
20
-21.037661366882695
30
0
0
SPLINE
5
102
100
AcDbEntity
8
0
100
AcDbSpline
70
4
71
5
72
16
73
10
74
0
42
0.000000001
43
0.0000000001
44
0.0000000001
40
0.62608290519684862
40
0.62608290519684862
40
0.62608290519684862
40
0.62608290519684862
40
0.62608290519684862
40
0.62608290519684862
40
0.65000000000000024
40
0.67500000000000027
40
0.70000000000000029
40
0.72500000000000031
40
0.74229461028099752
40
0.74229461028099752
40
0.74229461028099752
40
0.74229461028099752
40
0.74229461028099752
40
0.74229461028099752
41
1
41
1
41
1
41
1
41
1
41
1
41
1
41
1
41
1
41
1
10
-10.699941831815302
20
-21.037661366883384
30
0
10
-10.975251622832442
20
-19.994339692042967
30
0
10
-11.635381066756096
20
-17.913550294108958
30
0
10
-12.87313524551773
20
-14.940789667260979
30
0
10
-14.753919741769252
20
-11.300877290340885
30
0
10
-16.700627074045386
20
-7.4016897134781869
30
0
10
-17.667894328659159
20
-4.4156906262463567
30
0
10
-17.950120776737361
20
-2.2134982009948798
30
0
10
-17.954348366607114
20
-0.80336952634178593
30
0
10
-17.927397446739725
20
-0.22148522471949969
30
0
0
SPLINE
5
103
100
AcDbEntity
8
0
100
AcDbSpline
70
4
71
5
72
15
73
9
74
0
42
0.000000001
43
0.0000000001
44
0.0000000001
40
-0.76224606636727499
40
-0.76224606636727499
40
-0.76224606636727499
40
-0.76224606636727499
40
-0.76224606636727499
40
-0.76224606636727499
40
-0.75000000000000033
40
-0.72500000000000031
40
-0.70000000000000029
40
-0.69759898919124352
40
-0.69759898919124352
40
-0.69759898919124352
40
-0.69759898919124352
40
-0.69759898919124352
40
-0.69759898919124352
41
1
41
1
41
1
41
1
41
1
41
1
41
1
41
1
41
1
10
-17.927397446739416
20
-0.22148522471682575
30
0
10
-17.925091392274457
20
0.28118478290599092
30
0
10
-17.853685092101891
20
1.8119100309345932
30
0
10
-17.407026121829212
20
4.385674582431526
30
0
10
-16.405565246105937
20
7.1160704396793539
30
0
10
-15.064451504023744
20
9.9432780225744093
30
0
10
-13.930332869163717
20
12.305326612196655
30
0
10
-13.350100709105932
20
13.559304095772788
30
0
10
-13.299373557884341
20
13.669328033359964
30
0
0
SPLINE
5
104
100
AcDbEntity
8
0
100
AcDbSpline
70
4
71
5
72
14
73
8
74
0
42
0.000000001
43
0.0000000001
44
0.0000000001
40
0.8167225234046539
40
0.8167225234046539
40
0.8167225234046539
40
0.8167225234046539
40
0.8167225234046539
40
0.8167225234046539
40
0.8250000000000004
40
0.85000000000000042
40
0.86945723929183494
40
0.86945723929183494
40
0.86945723929183494
40
0.86945723929183494
40
0.86945723929183494
40
0.86945723929183494
41
1
41
1
41
1
41
1
41
1
41
1
41
1
41
1
10
-13.299373557860443
20
13.669328033410828
30
0
10
-13.152513159285634
20
14.010805193072894
30
0
10
-12.565425178398977
20
15.39002116621826
30
0
10
-11.666765857988269
20
17.614948522441544
30
0
10
-10.885727322060818
20
19.891858781763357
30
0
10
-10.327628325574871
20
22.198344123618963
30
0
10
-10.068917916718334
20
24.147510314759245
30
0
10
-10.000000000000957
20
24.999999999988098
30
0
0
SPLINE
5
105
100
AcDbEntity
8
0
100
AcDbSpline
70
4
71
5
72
17
73
11
74
0
42
0.000000001
43
0.0000000001
44
0.0000000001
40
-0.65018610393673615
40
-0.65018610393673615
40
-0.65018610393673615
40
-0.65018610393673615
40
-0.65018610393673615
40
-0.65018610393673615
40
-0.65000000000000024
40
-0.62500000000000022
40
-0.6000000000000002
40
-0.57500000000000018
40
-0.55000000000000016
40
-0.54267049265570855
40
-0.54267049265570855
40
-0.54267049265570855
40
-0.54267049265570855
40
-0.54267049265570855
40
-0.54267049265570855
41
1
41
1
41
1
41
1
41
1
41
1
41
1
41
1
41
1
41
1
41
1
10
-10.000000000000263
20
24.999999999993602
30
0
10
-9.9996243624472019
20
25.009130572017245
30
0
10
-9.9495622371219543
20
26.244814863778345
30
0
10
-10.058725891366469
20
28.710132954702487
30
0
10
-10.899326875120927
20
32.383654590525239
30
0
10
-13.446738939841429
20
37.090800279223515
30
0
10
-17.951853612271663
20
41.481167612728918
30
0
10
-22.202879239041241
20
44.193221764097061
30
0
10
-25.403137961937794
20
45.688656879745359
30
0
10
-27.259705305072998
20
46.397207330118974
30
0
10
-27.682999999627128
20
46.550815366791547
30
0
0
ENDSEC
0
SECTION
2
OBJECTS
0
DICTIONARY
5
C
100
AcDbDictionary
3
ACAD_GROUP
350
D
3
ACAD_MLINESTYLE
350
17
0
DICTIONARY
5
D
100
AcDbDictionary
0
DICTIONARY
5
1A
330
C
100
AcDbDictionary
0
DICTIONARY
5
17
100
AcDbDictionary
0
ENDSEC
0
EOF
